<?xml version="1.0" standalone="no"?>
<!DOCTYPE svg PUBLIC "-//W3C//DTD SVG 20010904//EN"
 "http://www.w3.org/TR/2001/REC-SVG-20010904/DTD/svg10.dtd">
<svg version="1.0" xmlns="http://www.w3.org/2000/svg"
 width="193.000000pt" height="261.000000pt" viewBox="0 0 193.000000 261.000000"
 preserveAspectRatio="xMidYMid meet">

<g transform="translate(0.000000,261.000000) scale(0.100000,-0.100000)"
fill="#000000" stroke="none">
<path d="M965 2458 c-16 -5 -37 -12 -45 -15 -8 -2 -36 -6 -63 -8 -26 -1 -55
-9 -65 -19 -10 -9 -24 -16 -30 -16 -17 0 -131 -110 -148 -143 -9 -16 -11 -27
-6 -23 5 3 -11 -32 -34 -77 -24 -45 -44 -88 -44 -96 0 -8 -14 -36 -31 -62 -17
-27 -27 -54 -23 -60 4 -8 3 -9 -4 -5 -7 4 -14 -4 -18 -21 -3 -15 -12 -50 -19
-77 -7 -26 -11 -55 -8 -64 5 -11 3 -13 -7 -7 -8 5 -11 4 -7 -2 3 -5 0 -31 -8
-58 -8 -26 -15 -58 -14 -69 0 -12 7 6 15 38 8 33 17 62 19 64 7 7 -3 -196 -10
-208 -3 -6 1 -10 9 -10 19 0 19 -3 5 -53 -5 -21 -14 -35 -19 -32 -6 3 -7 -1
-4 -9 4 -9 0 -18 -9 -22 -9 -3 -18 -12 -21 -20 -3 -9 -1 -12 4 -9 6 3 10 1 10
-5 0 -6 5 -8 11 -5 6 4 8 13 5 21 -3 8 1 14 10 14 11 0 12 -4 5 -18 -15 -29
-39 -44 -73 -48 -39 -5 -50 -14 -17 -15 l24 0 -24 -10 c-13 -5 -22 -10 -20
-12 2 -1 17 -13 33 -27 18 -15 27 -19 24 -10 -7 18 34 41 52 30 17 -11 3 -30
-21 -30 -10 0 -19 -4 -19 -9 0 -6 12 -6 30 -1 19 5 28 5 25 -1 -4 -5 0 -9 7
-9 9 -1 8 -3 -3 -10 -9 -5 -31 -5 -54 0 -51 12 -57 4 -20 -25 23 -19 32 -22
44 -12 10 8 13 8 8 1 -4 -7 1 -15 11 -19 26 -11 62 -12 62 -1 0 5 2 7 5 4 13
-13 -31 -79 -72 -108 -24 -18 -40 -36 -37 -42 4 -7 2 -8 -4 -4 -7 4 -22 0 -34
-8 -21 -15 -21 -16 -3 -16 16 0 17 -2 6 -9 -12 -8 -13 -14 -3 -35 6 -14 16
-26 22 -26 6 0 8 5 4 12 -4 7 -3 8 5 4 9 -6 9 -11 1 -21 -7 -8 -9 -19 -5 -25
4 -6 1 -17 -5 -25 -12 -15 -4 -20 23 -16 10 1 9 -17 -2 -23 -4 -3 -11 -2 -15
1 -4 4 -14 8 -24 9 -15 2 -15 1 -2 -9 20 -16 22 -34 5 -34 -8 0 -12 4 -9 9 3
4 1 8 -4 8 -6 0 -13 -7 -16 -16 -8 -22 -8 -26 4 -19 6 3 10 -1 10 -10 0 -10
-5 -14 -12 -10 -7 4 -4 -1 7 -10 20 -17 19 -17 -8 -11 -16 4 -27 2 -27 -4 0
-6 -4 -9 -9 -6 -5 4 -12 0 -15 -6 -4 -7 -5 -4 -3 7 3 17 -1 20 -22 19 -38 -3
-38 -3 -17 -19 16 -12 17 -18 8 -27 -9 -9 -12 -9 -12 2 0 9 -6 6 -16 -8 -9
-13 -13 -26 -10 -29 3 -4 6 -2 6 4 0 13 38 5 47 -10 4 -6 -3 -8 -18 -4 -23 6
-23 5 -5 -8 24 -18 16 -19 -19 -3 -24 11 -29 23 -26 58 1 12 -1 11 -9 -2 -10
-16 -12 -16 -30 2 -11 11 -26 20 -33 19 -9 0 -9 -2 1 -6 6 -2 10 -9 7 -14 -4
-5 2 -6 11 -2 12 4 15 3 10 -5 -4 -8 2 -16 16 -21 13 -6 20 -10 16 -10 -4 -1
4 -13 17 -27 13 -14 29 -23 35 -19 9 6 9 2 1 -12 -7 -14 -7 -23 1 -31 9 -9 8
-12 -6 -12 -9 0 -14 4 -11 10 3 5 -2 10 -12 11 -16 0 -16 1 2 9 20 9 18 10
-24 14 -8 0 -15 9 -17 19 -3 22 -14 36 -14 19 0 -7 -9 -12 -20 -12 -17 0 -19
3 -10 19 14 28 12 39 -4 18 -13 -16 -14 -16 -20 -1 -5 14 -9 15 -19 5 -9 -9
-9 -14 3 -21 8 -5 10 -10 5 -10 -6 0 -18 9 -28 20 -9 11 -12 20 -7 20 6 0 10
5 10 10 0 15 -24 7 -32 -10 -5 -12 -7 -12 -7 3 -1 9 -5 17 -10 17 -6 0 -10
-138 -10 -355 l-1 -356 65 2 c44 1 62 5 58 13 -4 6 2 4 12 -4 10 -8 16 -10 12
-4 -4 7 0 14 8 17 9 4 12 1 9 -8 -5 -12 116 -14 830 -15 772 0 836 1 836 16 0
14 8 16 53 12 l52 -6 -40 13 c-22 8 -48 14 -57 14 -18 1 -26 31 -9 31 5 0 7 9
4 20 -7 25 -5 25 51 0 l46 -19 0 64 0 64 -67 -5 c-63 -5 -66 -4 -48 10 11 8
31 16 45 16 42 1 70 12 70 27 0 11 -6 14 -22 9 -70 -20 -75 -19 -102 17 -31
41 -42 96 -51 263 -8 168 -15 225 -26 219 -5 -3 -6 1 -3 9 3 9 1 16 -5 16 -6
0 -8 6 -5 13 7 18 -90 124 -100 109 -4 -7 -4 -11 1 -10 4 2 10 -1 11 -7 2 -5
8 -17 12 -25 6 -12 3 -16 -10 -16 -10 0 -16 4 -13 9 9 15 -19 26 -37 15 -13
-8 -23 -7 -40 5 -21 15 -24 14 -41 -6 -9 -12 -21 -18 -25 -14 -5 4 -2 13 6 18
11 8 10 9 -7 4 -17 -5 -23 -2 -23 9 0 9 -6 15 -12 13 -7 -1 -12 4 -11 11 2 6
-2 12 -7 12 -11 0 -28 13 -60 44 -11 11 -20 16 -20 11 0 -5 -6 0 -14 10 -8 12
-19 16 -31 12 -12 -5 -16 -3 -12 7 4 10 1 13 -9 9 -10 -3 -12 0 -8 10 3 10 -4
20 -22 29 -56 27 -40 36 58 35 77 -2 93 1 93 13 0 8 4 16 9 17 16 3 25 27 15
44 -17 32 -9 37 33 22 22 -8 51 -12 62 -10 21 4 21 5 -1 12 -26 8 -30 37 -8
55 8 7 15 17 15 23 0 6 -7 2 -15 -9 -14 -19 -14 -18 -15 4 0 13 6 22 16 22 8
0 22 7 30 15 14 13 14 15 -2 15 -13 0 -14 3 -5 13 6 8 7 17 3 22 -4 4 4 4 18
1 23 -6 23 -6 8 7 -10 8 -14 17 -10 21 4 4 1 6 -7 4 -9 -2 -19 14 -29 44 -13
40 -13 52 -2 73 9 18 10 28 2 37 -6 8 -7 19 -3 27 5 7 7 23 5 35 -3 14 1 11
10 -9 12 -23 15 -25 15 -10 0 11 -4 29 -8 39 -4 11 0 42 11 74 10 30 18 60 18
66 0 19 -30 -45 -31 -68 -1 -11 -5 3 -10 33 -10 59 -5 78 10 40 8 -20 10 -15
10 28 1 64 -13 137 -44 223 -13 36 -26 93 -30 125 -4 33 -14 75 -21 94 -14 33
-137 161 -155 161 -5 0 -28 14 -52 30 -27 20 -49 29 -60 24 -9 -3 -14 -10 -11
-16 3 -5 -12 0 -35 11 -43 23 -115 27 -166 9z m-60 -158 c-3 -5 -18 -10 -33
-10 -21 0 -24 2 -12 10 20 13 53 13 45 0z m30 -40 c-4 -6 14 -10 47 -10 35 0
71 -8 107 -25 l54 -25 19 20 c25 27 33 26 93 -15 32 -23 64 -56 86 -92 34 -57
34 -59 34 -174 0 -119 -4 -137 -26 -123 -20 12 -141 4 -155 -11 -8 -7 -19 -15
-24 -17 -6 -2 -13 -24 -15 -48 -3 -25 -2 -36 1 -25 3 11 11 25 16 30 7 7 8 3
3 -12 -5 -17 -2 -23 9 -23 10 0 13 6 10 15 -4 8 -1 15 5 15 6 0 11 -7 11 -15
0 -8 9 -15 20 -15 11 0 20 -6 20 -12 0 -7 7 -2 16 10 12 18 19 21 30 11 7 -6
11 -16 7 -22 -4 -7 0 -8 13 -3 10 4 24 8 29 9 6 1 15 13 22 27 11 22 12 16 13
-51 0 -73 -2 -78 -41 -132 -22 -32 -38 -57 -34 -57 3 0 -4 -18 -14 -39 -27
-52 -72 -70 -101 -39 -24 26 -25 37 -5 44 19 8 19 21 1 39 -12 12 -16 11 -31
-5 -21 -23 -43 -26 -51 -7 -6 16 -106 18 -101 2 2 -5 16 -10 30 -10 15 -1 35
-10 45 -20 17 -19 16 -19 -4 -2 -21 17 -22 17 -27 -4 -3 -11 -10 -18 -16 -15
-5 3 -16 -1 -24 -9 -9 -8 -28 -15 -44 -16 -48 -2 -78 -14 -75 -31 1 -9 -2 -19
-8 -23 -5 -3 -10 -17 -10 -30 0 -28 -19 -37 -39 -17 -10 10 -11 16 -3 21 7 4
8 12 2 21 -12 19 -13 53 -1 45 5 -3 12 -1 16 5 3 5 -1 10 -9 10 -15 0 -23 43
-17 89 2 7 -2 10 -8 7 -5 -4 -13 -2 -16 4 -5 8 -11 7 -21 -1 -11 -9 -14 -9
-14 1 0 7 -7 10 -15 6 -14 -5 -38 24 -33 41 3 13 -13 76 -25 98 -7 11 -13 27
-14 35 -1 8 -5 31 -9 52 -5 28 0 49 19 92 14 31 31 56 37 56 6 0 9 4 5 10 -3
5 2 18 12 30 13 14 18 37 18 75 0 30 -3 55 -7 55 -4 0 -3 12 3 27 6 16 6 29 0
32 -11 7 35 54 101 104 26 19 44 38 41 41 -4 3 6 6 21 6 16 0 25 -4 21 -10z
m-374 -367 c13 -17 13 -17 -6 -3 -11 8 -22 16 -24 17 -2 2 0 3 6 3 6 0 17 -8
24 -17z m-12 -54 c10 15 31 7 31 -12 0 -7 -4 -6 -10 3 -6 9 -10 10 -10 3 0 -6
5 -15 11 -19 8 -5 6 -10 -5 -16 -23 -13 -20 -31 5 -25 15 4 19 2 15 -8 -3 -8
2 -18 10 -23 22 -12 27 -172 5 -172 -22 0 -51 31 -50 54 0 12 3 15 6 9 2 -7 9
-13 15 -13 13 0 -18 49 -45 70 -17 14 -18 24 -11 89 4 46 10 68 15 59 8 -11
11 -11 18 1z m-42 -51 c-3 -8 -6 -5 -6 6 -1 11 2 17 5 13 3 -3 4 -12 1 -19z
m915 -20 c-7 -7 -10 -5 -7 8 5 29 6 30 12 16 3 -8 1 -18 -5 -24z m-112 12 c0
-5 -3 -10 -7 -11 -5 0 -22 -2 -40 -3 -26 -3 -29 -1 -20 10 14 15 67 19 67 4z
m-629 -195 c15 10 10 -12 -6 -25 -13 -11 -14 -10 -9 6 7 18 6 18 -17 -1 l-24
-20 18 21 c9 11 18 27 18 35 1 9 3 7 6 -4 2 -9 9 -15 14 -12z m25 -35 c0 -12
-4 -16 -9 -11 -5 5 -6 14 -3 20 10 15 12 14 12 -9z m-69 -55 c0 -8 -4 -15 -9
-15 -10 0 -11 14 -1 23 9 10 10 9 10 -8z m1 -80 c-3 -3 -9 2 -12 12 -6 14 -5
15 5 6 7 -7 10 -15 7 -18z m32 -28 c0 -7 -4 -6 -10 3 -8 13 -10 12 -10 -4 0
-11 -3 -17 -6 -13 -4 3 -4 13 0 22 6 18 26 11 26 -8z m594 -2 c-4 -8 -8 -15
-10 -15 -2 0 -4 7 -4 15 0 8 4 15 10 15 5 0 7 -7 4 -15z m210 -16 c-10 -16
-24 -9 -24 12 0 18 2 19 15 9 8 -7 12 -16 9 -21z m-324 -9 c0 -5 -5 -10 -11
-10 -5 0 -7 5 -4 10 3 6 8 10 11 10 2 0 4 -4 4 -10z m360 -10 c0 -11 -4 -20
-10 -20 -5 0 -10 9 -10 20 0 11 5 20 10 20 6 0 10 -9 10 -20z m-253 -22 c-3
-8 -6 -5 -6 6 -1 11 2 17 5 13 3 -3 4 -12 1 -19z m-323 -22 c-3 -7 2 -16 11
-20 9 -3 13 -10 10 -16 -10 -16 -25 -12 -25 8 0 14 -2 15 -10 2 -6 -9 -5 -17
3 -22 8 -5 7 -8 -5 -8 -9 0 -20 5 -23 10 -3 6 -1 10 4 10 6 0 11 6 11 13 0 7
5 18 12 25 16 16 19 15 12 -2z m76 -24 c0 -5 14 -7 30 -6 17 1 33 -2 36 -7 3
-5 -13 -9 -35 -9 -23 0 -41 5 -41 11 0 6 -7 9 -15 5 -8 -3 -15 -1 -15 4 0 6 9
10 20 10 11 0 20 -4 20 -8z m114 -28 c3 -8 2 -12 -4 -9 -6 3 -10 10 -10 16 0
14 7 11 14 -7z m-152 -6 c-17 -17 -15 -29 3 -22 10 4 15 0 15 -12 0 -9 3 -15
6 -11 4 3 19 0 34 -8 15 -8 31 -11 35 -7 5 4 5 2 2 -5 -4 -6 -1 -14 5 -17 7
-3 1 -3 -14 -1 -21 3 -28 -1 -29 -13 0 -13 -3 -11 -11 6 -6 12 -16 22 -22 22
-17 -1 -46 -26 -39 -34 4 -4 0 -4 -9 -1 -8 3 -15 12 -15 18 1 37 -4 49 -18 43
-29 -11 -13 23 20 42 28 16 53 16 37 0z m508 -8 c0 -5 -2 -10 -4 -10 -3 0 -8
5 -11 10 -3 6 -1 10 4 10 6 0 11 -4 11 -10z m-379 -32 c-3 -21 -6 -26 -9 -15
-3 17 3 47 11 47 2 0 1 -15 -2 -32z m-710 -5 c13 -17 13 -17 -6 -3 -11 8 -22
16 -24 17 -2 2 0 3 6 3 6 0 17 -8 24 -17z m617 -54 c3 -12 2 -12 -6 0 -8 11
-10 11 -15 0 -4 -10 -6 -8 -6 4 -1 21 21 18 27 -4z m-265 -57 c9 -7 19 -27 22
-43 4 -16 11 -29 16 -29 5 0 9 -8 8 -17 0 -12 -2 -13 -6 -5 -4 10 -9 9 -24 -4
-16 -14 -26 -14 -16 0 1 2 -7 13 -17 25 -11 12 -16 21 -13 21 4 0 -2 9 -13 20
-11 11 -20 26 -20 33 0 8 4 7 10 -3 5 -8 10 -11 10 -6 0 6 7 1 15 -10 9 -10 7
-1 -5 21 -25 49 -27 81 -2 40 11 -16 26 -36 35 -43z m552 20 c-6 -7 -35 18
-35 31 0 5 9 2 20 -8 11 -10 18 -20 15 -23z m-507 -2 c8 0 12 -3 9 -7 -4 -3
-3 -11 2 -17 4 -6 11 -20 15 -30 6 -17 5 -17 -11 -5 -46 35 -65 62 -51 70 7 5
14 4 16 -1 2 -6 11 -10 20 -10z m2 -184 c0 -5 -7 -1 -15 10 -8 10 -14 24 -14
29 0 6 6 1 14 -9 8 -11 15 -24 15 -30z m69 -52 c4 3 8 -1 8 -9 0 -11 -4 -12
-14 -4 -7 6 -13 17 -12 23 0 7 2 6 6 -2 2 -6 8 -10 12 -8z m52 -41 c13 -17 13
-17 -6 -3 -11 8 -22 16 -24 17 -2 2 0 3 6 3 6 0 17 -8 24 -17z m169 -13 c0
-29 -1 -30 -47 -29 -27 1 -38 4 -26 6 11 2 29 15 39 29 25 32 34 30 34 -6z
m-632 -16 c11 -9 8 -10 -12 -7 -14 3 -23 9 -20 14 3 5 0 9 -6 9 -6 0 -8 5 -5
11 5 7 11 6 18 -3 7 -7 18 -18 25 -24z m-96 -107 c13 3 20 2 16 -2 -4 -4 -24
-9 -45 -11 -21 -2 -32 -1 -25 2 6 3 12 13 12 22 1 16 1 16 10 0 7 -10 18 -14
32 -11z m-74 -17 c7 -11 9 -20 4 -20 -4 0 -13 9 -20 20 -7 11 -9 20 -4 20 4 0
13 -9 20 -20z m82 -50 c0 -5 -4 -10 -10 -10 -5 0 -10 5 -10 10 0 6 5 10 10 10
6 0 10 -4 10 -10z m-74 -38 c-15 -15 -15 -15 -4 10 7 15 15 23 17 17 2 -6 -4
-18 -13 -27z m-22 7 c-3 -5 -10 -7 -15 -3 -5 3 -7 10 -3 15 3 5 10 7 15 3 5
-3 7 -10 3 -15z m52 -23 c0 -14 -3 -23 -7 -20 -6 3 -6 22 0 42 3 10 7 -2 7
-22z m61 -1 c0 -8 -4 -12 -9 -9 -4 3 -8 9 -8 15 0 5 4 9 8 9 5 0 9 -7 9 -15z
m-101 -27 c-3 -13 -5 -24 -5 -26 -1 -2 -6 0 -11 3 -7 4 -7 13 0 26 14 25 21
24 16 -3z m144 18 c0 -3 -4 -8 -10 -11 -5 -3 -10 -1 -10 4 0 6 5 11 10 11 6 0
10 -2 10 -4z m0 -32 c0 -2 -9 -4 -20 -4 -11 0 -20 4 -20 9 0 5 9 7 20 4 11 -3
20 -7 20 -9z m425 -44 c10 -11 16 -20 13 -20 -3 0 -13 9 -23 20 -10 11 -16 20
-13 20 3 0 13 -9 23 -20z m-698 -16 c-3 -3 -12 -4 -19 -1 -8 3 -5 6 6 6 11 1
17 -2 13 -5z m-32 -15 c11 -16 1 -19 -13 -3 -7 8 -8 14 -3 14 5 0 13 -5 16
-11z m415 -9 c-6 -11 -13 -20 -16 -20 -2 0 0 9 6 20 6 11 13 20 16 20 2 0 0
-9 -6 -20z m-334 -2 c5 -7 3 -8 -6 -3 -10 6 -12 3 -7 -11 7 -18 6 -18 -7 -1
-8 10 -16 14 -17 9 -2 -6 -10 -4 -17 4 -11 12 -8 14 17 14 16 0 33 -5 37 -12z
m707 -13 c-3 -9 -8 -14 -10 -11 -3 3 -2 9 2 15 9 16 15 13 8 -4z m-858 -44 c3
-5 0 -13 -6 -17 -7 -4 -9 -3 -5 4 3 5 0 13 -6 15 -9 4 -10 6 -1 6 6 1 14 -3
18 -8z m22 -13 c-3 -8 -6 -5 -6 6 -1 11 2 17 5 13 3 -3 4 -12 1 -19z m53 -13
c7 -8 16 -12 21 -9 5 3 9 0 9 -5 0 -6 -3 -11 -7 -12 -5 0 -16 -2 -25 -4 -11
-2 -15 2 -11 11 3 9 -2 12 -17 9 -18 -3 -20 -2 -10 10 16 19 24 19 40 0z m76
-27 c5 4 6 3 1 -2 -4 -6 -18 -11 -30 -12 -12 -2 -16 0 -9 2 6 3 9 11 5 17 -5
8 -2 8 9 0 8 -7 19 -9 24 -5z m-90 -60 c4 -7 3 -8 -4 -4 -7 4 -12 2 -12 -3 0
-6 6 -11 13 -11 8 0 7 -3 -3 -9 -21 -14 -32 -3 -20 20 12 22 16 23 26 7z m560
-25 c-1 -7 -6 -16 -11 -20 -4 -4 -5 -3 -1 4 3 6 -2 16 -11 22 -16 9 -16 10 3
8 12 0 21 -7 20 -14z m-521 -13 c4 -6 11 -8 16 -5 5 3 6 -1 3 -9 -3 -8 -12
-12 -20 -9 -8 3 -12 9 -9 13 3 5 -1 11 -7 13 -9 4 -10 6 -1 6 6 1 15 -4 18 -9z"/>
<path d="M875 1862 c-26 -3 -88 -52 -66 -52 5 0 11 -7 14 -14 4 -10 1 -13 -9
-9 -26 10 -14 -5 16 -21 26 -12 32 -12 44 -1 12 12 15 11 19 -5 7 -26 42 -26
60 0 14 20 14 20 33 -2 10 -12 13 -18 7 -14 -8 5 -13 1 -13 -10 0 -13 3 -14
13 -5 8 6 17 8 21 4 4 -4 4 0 0 10 -5 13 -2 16 11 11 11 -5 15 -15 12 -30 -2
-13 -1 -24 4 -24 16 0 30 41 23 63 -4 12 -7 29 -6 38 4 28 -117 69 -183 61z
m100 -52 c14 -6 0 -8 -45 -8 -43 1 -58 4 -45 9 26 10 65 10 90 -1z"/>
<path d="M760 1556 c0 -9 5 -16 10 -16 6 0 10 4 10 9 0 6 -4 13 -10 16 -5 3
-10 -1 -10 -9z"/>
<path d="M990 1535 c0 -8 2 -15 4 -15 2 0 6 7 10 15 3 8 1 15 -4 15 -6 0 -10
-7 -10 -15z"/>
<path d="M525 1720 c3 -5 8 -10 11 -10 2 0 4 5 4 10 0 6 -5 10 -11 10 -5 0 -7
-4 -4 -10z"/>
<path d="M590 1665 c0 -8 4 -15 10 -15 5 0 7 7 4 15 -4 8 -8 15 -10 15 -2 0
-4 -7 -4 -15z"/>
<path d="M595 1620 c-3 -5 -1 -10 4 -10 6 0 11 5 11 10 0 6 -2 10 -4 10 -3 0
-8 -4 -11 -10z"/>
<path d="M730 1042 c0 -7 5 -12 11 -12 6 0 9 -9 6 -20 -6 -23 -4 -25 12 -7 8
11 6 18 -9 32 -11 10 -20 13 -20 7z"/>
<path d="M1270 2436 c0 -2 8 -10 18 -17 15 -13 16 -12 3 4 -13 16 -21 21 -21
13z"/>
<path d="M1532 1535 c0 -16 2 -22 5 -12 2 9 2 23 0 30 -3 6 -5 -1 -5 -18z"/>
<path d="M1518 1460 c2 -16 6 -30 8 -30 2 0 4 14 4 30 0 17 -4 30 -8 30 -5 0
-7 -13 -4 -30z"/>
<path d="M280 975 c-19 -14 -30 -25 -25 -25 6 0 24 11 40 25 39 31 30 31 -15
0z"/>
</g>
</svg>
